# xmcd
#
# Track frame offsets: 
#        150
#        7880
#        12800
#        21885
#        33617
#        50875
#        64627
#        66875
#        70815
#        81520
#        92230
#        96957
#        107835
#        126360
#        147192
#        159245
#        162862
#        196800
#
# Disc length: 2831 seconds
#
# Revision: 6
# Processed by: cddbd v1.5.2PL0 Copyright (c) Steve Scherf et al.
# Submitted via: ExactAudioCopy v0.99pb5
#
DISCID=f30b0d12
DTITLE=Danny Elfman - Flubber
DYEAR=1997
DGENRE=Soundtrack
TTITLE0=Main Title
TTITLE1=Beautiful Day
TTITLE2=Breakfast
TTITLE3=The Idea
TTITLE4=It's Alive
TTITLE5=Gamma Ray
TTITLE6=Take Off
TTITLE7=Mambo in the Sky
TTITLE8=Flying High
TTITLE9=Weebo Yearns
TTITLE10=The Test
TTITLE11=Mambo del Flubber
TTITLE12=Remarkable
TTITLE13=Weebo's Death
TTITLE14=Revenge
TTITLE15=Airborne
TTITLE16=End Credits
TTITLE17=KC and The Sunshine Band - Goo a Little Dance (Get Down Tonight
TTITLE17=)
EXTD=
EXTT0=
EXTT1=
EXTT2=
EXTT3=
EXTT4=
EXTT5=
EXTT6=
EXTT7=
EXTT8=
EXTT9=
EXTT10=
EXTT11=
EXTT12=
EXTT13=
EXTT14=
EXTT15=
EXTT16=
EXTT17=
PLAYORDER=
